<svg width="269" height="199" viewBox="0 0 269 199" fill="none" xmlns="http://www.w3.org/2000/svg">
<path fill-rule="evenodd" clip-rule="evenodd" d="M176.337 193.619C181.962 183.615 187.337 187.307 199.295 187.248C214.17 187.178 213.087 183.623 221.587 194.19L176.337 193.619ZM127.587 193.219C128.879 191.707 130.087 191.244 131.545 189.127C132.587 187.532 133.42 185.39 134.337 184.003L141.628 183.899C142.67 188.84 144.753 190.49 145.67 193.261L127.587 193.219ZM63.8785 193.619C71.9202 185.502 66.4614 182.157 76.9614 182.557C83.0447 182.79 95.3787 181.969 100.504 183.082L106.545 193.482L63.8785 193.619ZM42.6281 163.499C52.7948 160.274 55.2532 186.932 45.8782 189.565C36.5032 192.203 33.1281 166.524 42.6281 163.499ZM153.087 163.657C163.92 158.736 169.92 186.061 158.17 190.923C147.711 195.261 141.045 169.132 153.087 163.657ZM235.712 146.365C240.545 143.49 243.087 152.919 238.837 155.152C234.545 157.398 231.337 148.982 235.712 146.365ZM203.712 144.936C205.212 146.761 205.962 149.365 206.17 151.715C200.67 151.553 195.087 151.223 189.587 151.028C183.17 150.798 181.712 150.503 180.253 143.878C184.212 143.965 201.462 144.098 203.712 144.936ZM260.253 150.798C257.461 151.261 258.962 149.665 256.712 144.298L258.837 144.286C259.795 146.19 260.67 148.923 260.253 150.798ZM17.6281 163.153C17.2114 157.194 19.5451 164.865 20.0868 157.836C20.2534 155.753 20.0034 152.428 20.0451 150.153C20.0867 147.344 21.0446 137.277 20.6279 135.611C18.4613 126.994 21.0871 120.744 24.5871 111.694C29.6288 98.6441 27.4622 98.9025 42.3789 98.2817C67.3372 97.2442 179.42 89.3276 187.295 100.84L137.253 100.361V101.298C136.17 104.173 150.462 121.357 153.128 124.623C157.837 130.44 182.129 127.807 190.004 127.803C207.879 127.798 242.921 127.223 256.796 140.878L174.671 141.536C172.671 144.023 176.004 149.24 177.712 151.519C180.087 154.786 184.878 154.315 188.753 154.398C201.545 154.673 201.17 153.557 212.378 158.628C216.087 160.324 233.879 159.857 238.962 159.811C265.504 159.586 252.879 156.378 261.795 154.236L263.754 164.832L220.379 164.653C212.962 164.511 182.712 160.365 182.712 170.003C182.712 175.373 193.212 174.586 206.712 174.744L262.837 175.407V177.044L175.587 176.915C171.921 171.353 173.587 152.119 157.295 149.094C138.295 145.569 140.17 170.011 137.753 175.569L101.045 175.015L99.5872 166.978L134.046 167.882L134.087 166.436L99.2952 164.973L98.9198 145.082L125.295 144.794L125.836 143.036L76.9197 143.14L75.7122 144.794L98.2535 145.257L98.7113 164.84L63.4614 164.511V165.661L98.5872 166.915L100.462 175.007C90.8787 175.411 80.7117 174.699 71.0451 174.665C56.5034 174.611 62.8787 169.465 56.7537 158.978C52.712 151.978 45.1279 147.128 37.2529 151.782C27.9196 157.298 30.3787 166.728 27.6287 172.119L27.2533 163.769L17.6281 163.153ZM164.879 26.8484C163.087 28.3359 153.337 30.5942 150.253 31.5234C142.378 33.9109 144.754 33.6649 138.92 27.8857C134.837 23.8774 123.129 12.7608 121.462 6.62333L164.879 26.8484ZM12.0871 130.511C0.545412 120.819 14.5447 97.9151 22.8364 89.7151C32.3781 80.2443 49.1285 74.2733 61.8369 70.4941C86.4619 63.1483 85.4206 64.4566 110.087 66.8399C140.212 69.7524 133.545 67.0235 159.128 61.4485L153.17 78.2151C154.42 79.3526 158.587 78.9483 160.42 79.0233L169.92 53.6983L168.795 53.2733C165.92 50.0775 142.754 58.9524 138.129 60.2857C131.421 62.2066 110.42 59.3482 101.629 59.2441L83.2948 41.7109C86.0032 39.8818 98.2531 46.3608 101.92 48.0108C111.545 52.3316 112.712 50.5484 122.379 47.5276C135.837 43.3109 149.587 39.4317 163.045 35.4734C179.837 30.5359 233.504 11.4443 246.462 14.3776C243.671 16.5651 232.837 26.2817 245.504 22.2483C252.504 20.0192 255.628 17.3317 261.628 21.2067C251.753 31.815 219.045 41.0357 204.67 43.2816C199.92 44.0191 200.67 36.4651 193.254 46.6817C188.795 52.8109 168.087 78.24 168.795 81.04C175.503 88.2942 192.045 60.7942 195.795 55.5484C199.795 50.0192 229.795 43.5817 237.462 41.5276C295.253 26.0567 260.128 0.389995 227.17 8.86917C212.753 12.5858 198.503 17.6107 184.211 21.5274C172.628 24.694 175.378 23.4858 164.503 18.29C156.712 14.5816 132.962 2.44009 127.17 0.315086C124.462 -0.668249 105.837 0.485891 109.087 7.36923C111.254 11.9984 135.212 33.1316 136.129 35.7483C125.754 38.8816 113.67 45.3234 103.295 40.7234C96.0034 37.4984 78.7532 29.0734 71.8782 37.9568L70.5039 39.3568L88.67 56.4192C60.3783 60.0733 13.8369 74.2317 2.50354 104.423C-0.788127 113.257 -1.0802 124.269 3.12814 132.853C8.16981 143.186 15.9622 141.307 12.2122 156.694C10.1289 165.298 8.58672 176.332 20.0451 179.265C36.0034 183.361 28.2122 180.394 38.2122 194.248L18.5029 194.569V197.615L259.67 198.561L259.712 195.39L247.212 194.869C249.129 192.39 251.504 192.953 253.671 187.661C256.087 181.79 256.587 185.319 261.837 182.361C268.42 178.657 268.253 170.503 268.587 163.244C268.712 160.661 264.212 144.219 263.087 141.648C260.296 135.178 254.503 132.353 247.92 130.178C226.878 123.211 228.628 130.007 211.295 113.265C203.045 105.269 191.628 93.4399 180.295 90.6899C155.753 84.7441 104.379 88.2233 77.7956 89.44C70.5039 89.7733 31.9621 91.365 27.7538 92.9441C18.0871 96.5858 14.8788 125.911 12.0871 130.511Z" fill="#46A5AF"/>
</svg>
